<?xml version="1.0" encoding="UTF-8"?>
<svg width="200mm" height="200mm" version="1.1" viewBox="0 0 200 200" xmlns="http://www.w3.org/2000/svg">
 <path d="m165.07 93.633c0 .253-.21.474-.476.474-.254 0-.463-.22-.463-.474s.21-.464.464-.464c.265 0 .475.21.475.463zm-97.75 98.147c0 .43-.343.772-.762.772-.43 0-.773-.342-.773-.773 0-.42.342-.762.773-.762.42 0 .76.342.76.76z" fill="#fee599" fill-rule="evenodd"/>
 <path d="m64.355 194.64c-0.61019-0.21512-0.51002-2.3519 0.2076-4.4286 0.33683-0.97475 1.4838-3.2125 2.5488-4.9728 1.647-2.7223 2.2459-3.4009 4.0078-4.541 2.9847-1.9316 3.938-3.3528 6.7767-10.104 2.7013-6.4241 4.4836-15.532 4.4836-22.913 0-4.254-0.2237-4.8271-2.1028-5.3877-0.81674-0.24366-2.4761-0.8915-3.6876-1.4396-2.6242-1.1874-2.648-1.1742-4.7081 2.6091-0.94697 1.7392-1.5156 2.4224-2.0839 2.5035-1.0377 0.14828-1.7634-0.50163-1.793-1.6057-0.0655-2.4481-0.37589-2.324-3.7074 1.4812-1.7529 2.0021-3.8596 4.5539-4.6817 5.6706-1.2244 1.6633-1.6726 2.0304-2.4786 2.0304-1.6568 0-1.9395-0.69642-1.4545-3.583 0.45503-2.708 1.0015-4.5235 3.9421-13.095 1.0515-3.0652 1.9119-5.6986 1.9119-5.8519 0-0.15335-0.65826-0.0421-1.4628 0.24723-1.8069 0.64974-3.208 0.35279-3.7288-0.7903-0.56364-1.2371 0.0832-3.6593 2.3245-8.7046 1.9508-4.3913 3.7324-9.4995 3.4216-9.8103-0.0965-0.0965-1.7438 7e-3 -3.6607 0.22976-6.3438 0.7375-10.22-0.42572-10.22-3.067 0-0.65132-0.12372-0.70468-1.1105-0.47875-0.61078 0.13984-1.5697 0.22371-2.131 0.18641-1.7808-0.11842-5.0682-1.1008-6.0697-1.814-2.4327-1.7322-6.7153-8.9291-8.4021-14.12-0.77389-2.3814-1.7634-8.8589-1.7634-11.543 0-2.1625 0.48564-3.7617 1.585-5.2196 0.66808-0.88593 0.73925-1.2239 0.46766-2.221-0.1762-0.64684-0.55024-2.9444-0.83122-5.1056-0.589-4.5303-0.37257-6.9189 0.9884-10.909 0.47599-1.3954 0.86544-2.7999 0.86544-3.1209 0-0.91067 2.6364-3.1152 3.5759-2.9902 0.48998 0.06521 1.8663 1.286 3.5864 3.1811 2.1482 2.3668 3.1743 3.8624 4.4542 6.4922 1.7361 3.5673 3.7599 9.7976 3.7599 11.575 0 0.80401 0.0912 0.94261 0.41003 0.62369 0.64193-0.64193 1.2661-0.49674 3.1424 0.73104 2.4027 1.5722 3.7752 2.2809 9.0192 4.6574 3.6102 1.6361 9.7314 3.7691 10.816 3.7691 0.1041 0 0.18936-0.36558 0.18936-0.81241 0-0.44682 0.23064-1.0038 0.51254-1.2378 0.86851-0.7208 0.57641-0.94834-0.99064-0.77171-1.3049 0.14708-1.5721 0.06266-2.0256-0.63994-0.77985-1.2082-0.26226-3.2324 1.6706-6.5334 0.90766-1.5501 2.0982-3.6352 2.6456-4.6334 1.1293-2.0594 3.3406-7.3262 3.1542-7.5127-0.15344-0.15344-4.8921 2.9509-5.1559 3.3776-0.30553 0.49437-1.7352 0.36272-2.2048-0.20302-0.88016-1.0605 0.0863-6.1176 3.0686-16.057 0.96636-3.2207 1.0255-3.7555 1.0296-9.3112 4e-3 -5.4355 0.0575-5.9475 0.68771-6.5777 0.85389-0.85388 1.2298-0.85379 2.8241 6.49e-4l1.2763 0.68407v-6.8353h-2.0502c-2.2315 0-2.5271-0.32708-1.2814-1.4179 1.2802-1.121 3.4965-1.9911 5.6428-2.2154 2.2545-0.23564 6.1552 0.32447 7.6527 1.0989 0.53369 0.27598 0.97034 0.35832 0.97034 0.18298 0-0.5999-3.4469-3.4182-7.6185-6.2291-4.4608-3.0058-6.0134-4.4648-6.0355-5.672-0.0141-0.76502 1.1785-2.152 1.8445-2.1452 0.60082 0.0061 3.4718 0.93391 4.5135 1.4586 0.53607 0.27001 3.2043 0.96357 5.9293 1.5413 7.5004 1.59 6.6663 1.6833 7.3443-0.82164 1.0246-3.7851 3.3241-7.9907 4.3692-7.9907 0.677 0 3.0287 2.1834 3.8366 3.562 1.7372 2.9642 3.2385 9.162 3.2418 13.383l9.8e-4 1.7393 3.5806-1.8368c4.244-2.1771 7.9954-3.2364 11.112-3.1378l2.221 0.07027v-1.9192c0-2.3107 0.67187-3.2809 1.8395-2.656 0.3978 0.21289 0.72326 0.52981 0.72326 0.70425 0 0.74157 4.4172 4.951 6.9694 6.6416 4.7593 3.1526 11.023 5.3063 15.455 5.3141 2.727 0.0048 3.5279 0.46626 2.8872 1.6635-0.46731 0.87316-2.3354 1.4912-5.2435 1.7348l-2.3128 0.19374 0.94061 1.3668c2.0896 3.0364 4.9171 8.7702 6.7876 13.764 3.6671 9.7908 4.5587 20.079 2.1012 24.244-1.1062 1.8748-1.44 1.4599-2.084-2.5906l-0.39919-2.5106-0.75262 0.63126-0.75263 0.63126 1.3686 2.7336c2.5422 5.0775 3.4256 9.7614 2.7677 14.675-0.29312 2.1894-1.3443 2.8542-5.047 3.192l-2.6613 0.24284 3.1262 2.8656c3.1508 2.8881 4.57 4.9159 3.9057 5.5802-0.18971 0.18971-0.97331 0.28501-1.7414 0.21177-0.76802-0.07323-1.3964-0.10344-1.3964-0.06702s0.30753 0.78355 0.6834 1.6604c0.37585 0.87688 0.68339 2.0428 0.68339 2.5911 0 1.2653 0.71336 1.3031 1.8317 0.097 0.64946-0.70042 1.0311-0.85039 1.7223-0.67689 0.82308 0.20658 0.88975 0.36605 0.91202 2.1811 0.0132 1.077 0.14368 2.2648 0.28993 2.6394 0.24315 0.62288 0.31416 0.5878 0.83019-0.41012 1.2543-2.4256 3.0433-8.0295 3.845-12.044 1.1955-5.9869 2.2944-8.2203 4.6468-9.4443 2.826-1.4704 4.8188 0.86756 6.6007 7.744 0.46174 1.7819 0.53662 3.5989 0.43469 10.547-0.15241 10.388-0.20615 10.568-5.1416 17.166-1.4573 1.9483-2.9447 3.3049-5.7873 5.2782-1.4816 1.0285-1.5434 1.142-1.7623 3.2366-0.30505 2.9186-0.68245 3.2551-2.6664 2.3775-1.7035-0.75354-7.8543-2.4744-8.0707-2.258-0.0748 0.0747 0.18483 2.7238 0.57693 5.8868 0.8672 6.9956 1.3956 12.677 1.396 15.009 3.2e-4 1.9188-0.66603 2.872-2.0077 2.872-0.99822 0-1.9234-1.0428-5.154-5.8094-3.383-4.9914-3.5638-5.1524-4.2647-3.7972-0.53917 1.0426-2.9246 10.284-2.9246 11.33 0 0.80673-1.1049 1.694-2.1096 1.694-1.2698 0-1.8607-0.87269-3.1994-4.7256-0.66394-1.9108-1.5154-4.1932-1.8921-5.0721-0.59748-1.3939-0.748-1.5348-1.1791-1.1037-0.43109 0.43108-0.32545 0.88575 0.82755 3.5621 0.72695 1.6874 1.8186 4.6825 2.426 6.6558 1.5364 4.992 2.0993 5.955 5.2375 8.96 1.5156 1.4512 2.6358 2.7582 2.4894 2.9044-0.4011 0.40054-4.6872 0.24456-6.2139-0.22614-0.73759-0.22741-2.1538-0.72959-3.1472-1.116-0.99341-0.38636-1.8879-0.62081-1.9877-0.52095-0.21932 0.21933 1.2058 3.0816 2.9315 5.8875 0.69348 1.1276 1.9113 3.1697 2.7062 4.5379 0.79494 1.3683 2.3759 3.4825 3.5132 4.6983 1.9712 2.1072 2.1424 2.2106 3.6592 2.2106 3.89 0 8.5058 2.2003 11.36 5.4153 1.8761 2.113 2.2761 3.1662 2.3928 6.3013 0.10835 2.9083-0.25292 3.6561-1.7648 3.6534-0.46445-6.9e-4 -8.9018-0.0837-18.75-0.18408-17.219-0.17556-17.938-0.20865-18.771-0.86352-1.1625-0.91444-2.2933-2.6276-3.1219-4.7297-0.75511-1.9158-2.188-10.481-2.8623-17.11l-0.43445-4.2712-0.95809 4.1004c-1.2658 5.4173-2.3926 8.7686-3.8049 11.316-1.0776 1.9437-1.1446 2.2432-0.95588 4.2712 0.15627 1.6794 0.0358 2.7415-0.52384 4.6186-0.39971 1.3407-0.93359 2.6093-1.1864 2.8191-0.30079 0.24962-3.6359 0.44223-9.6503 0.55733-16.812 0.32177-25.929 0.41141-26.361 0.25918zm7.7641-3.6526c0.56937-1.7252 2.799-4.0666 4.94-5.1876 1.8157-0.95064 1.9064-0.96407 2.4918-0.36915 0.58265 0.59211 0.57694 0.641-0.1393 1.1933-0.41076 0.31676-1.3333 0.93329-2.0502 1.3701-1.4204 0.86544-3.1827 2.9439-3.1827 3.7536 0 0.42644 0.45344 0.47288 2.819 0.28873 1.5505-0.12076 3.4516-0.22037 4.2248-0.2215 1.3601-3e-3 1.4258-0.0544 2.0205-1.6117 0.7716-2.0204 3.5473-4.8826 4.7351-4.8826 0.55401 0 0.92441 0.24232 1.0696 0.69978 0.23582 0.74299-0.3297 1.6921-1.0082 1.6921-0.65704 0-3.2682 3.1723-3.2682 3.9705 0 0.26884 13.643-0.0734 13.919-0.34913 0.41728-0.41727 0.50283-5.0178 0.11094-5.964-0.42941-1.0367-2.4003-2.6023-4.481-3.5595-0.66796-0.30729-3.0717-0.82796-5.3416-1.157-3.9192-0.56816-4.3573-0.5686-8.6947-9e-3 -5.8029 0.74922-7.4969 1.5118-9.8828 4.4486-1.6823 2.0708-3.7398 5.7037-3.7398 6.6032 0 0.3417 0.64393 0.45797 2.5362 0.45797h2.5362zm59.186-1.0539c-0.0641-0.61088-0.60035-1.5331-1.3272-2.2824-0.77223-0.79603-1.1441-1.4541-1.0137-1.7939 0.62635-1.6322 3.6961 0.7614 4.4128 3.4409 0.48957 1.8305 0.96458 2.0054 4.5369 1.6706 2.3176-0.21718 2.5536-0.30771 2.5525-0.97897-6.8e-4 -0.40681-0.30823-1.2431-0.6834-1.8584-0.37516-0.61533-0.68212-1.4995-0.68212-1.9648 0-0.70694 0.16392-0.84598 0.99723-0.84598 1.2101 0 2.3145 1.564 2.6986 3.8216 0.24935 1.4655 0.26147 1.4761 1.9508 1.701 0.93493 0.1245 2.6807 0.23981 3.8795 0.25628l2.1796 0.0299-0.23275-1.7939c-0.26859-2.0701-1.2876-3.5388-3.7629-5.423-2.5874-1.9696-4.539-2.375-11.81-2.4533l-6.3214-0.0682-3.5878 1.7673c-3.5388 1.7431-4.9435 2.8823-6.8798 5.5792-1.8303 2.5492-2.1715 2.4164 5.9483 2.3132l7.2529-0.0923zm-14.804-3.5646c2.4165-3.7293 8.2688-7.4777 12.92-8.2753l2.3663-0.40578-1.4262-2.1268c-3.2934-4.9113-6.3208-11.389-7.1344-15.266-0.23052-1.0982-1.0983-1.5901-6.5068-3.6884-2.0673-0.802-5.3732-2.2178-7.3465-3.1462-1.9733-0.92843-5.2792-2.3552-7.3465-3.1707-2.0673-0.81545-5.3185-2.1698-7.2248-3.0098-1.9064-0.83991-4.3666-1.7821-5.4672-2.0938-1.1006-0.31166-2.2701-0.64521-2.599-0.74119-0.54233-0.15829-0.59797 0.15589-0.59797 3.377 0 9.4007-2.2972 20.785-5.0622 25.087-0.50463 0.78512-1.414 2.2044-2.0207 3.154l-1.1032 1.7265 4.6911-0.20159c3.5942-0.15446 5.45-0.0679 7.9372 0.3702 3.7597 0.66223 7.5978 1.9151 8.9661 2.9267 0.70274 0.51955 0.98967 0.58899 1.0903 0.26385 2.0423-6.5996 3.6647-13.872 4.4332-19.873 0.28983-2.2631 0.75503-4.415 1.0527-4.8692 0.63023-0.96185 2.2425-1.105 2.9428-0.26123 0.79254 0.95498 1.6267 4.8717 2.3566 11.065 0.87952 7.4633 2.3049 16.87 2.7959 18.452 0.38212 1.2308 0.91128 2.3919 1.0901 2.3919 0.0557 0 0.59267-0.75835 1.1933-1.6852zm10.405-32.912c-1.3933-4.5473-2.382-6.9584-4.5769-11.162-2.114-4.0481-5.681-11.831-6.8258-14.893-0.64748-1.7318-3.0546-11.209-3.0546-12.027 0-0.24478 0.32804-0.7731 0.72899-1.174 0.6757-0.6757 0.95363-0.71202 3.8035-0.49689 3.5598 0.26873 7.3013 0.93919 11.679 2.0928 1.702 0.44851 5.0698 1.0555 7.484 1.3488 3.3046 0.40151 5.1621 0.8317 7.5158 1.7407 1.7195 0.66407 4.7104 1.5817 6.6465 2.0392 1.9361 0.45746 3.8204 0.99243 4.1873 1.1888 0.96265 0.5152 0.89062-0.10331-0.68095-5.8461-1.5826-5.783-2.0628-8.5047-2.0663-11.711-3e-3 -2.1021-0.0641-2.3163-0.60055-2.0832-2.2868 0.99357-4.9445 1.6412-11.212 2.7321-6.6819 1.163-7.4921 1.2338-12.279 1.0726-5.6635-0.19073-8.1042-0.60844-10.446-1.7878-1.8536-0.93339-4.1842-3.7887-4.9665-6.0848-0.29722-0.87228-0.60767-1.586-0.68991-1.586-0.0823 0-1.0942 0.31823-2.2488 0.70719-1.4453 0.48689-3.3966 0.76848-6.2641 0.90397-3.6024 0.17021-4.598 0.0919-7.3721-0.58029-1.764-0.42741-3.9527-1.1744-4.8639-1.66-1.8921-1.0083-4.3288-3.5622-5.2403-5.4923l-0.62034-1.3135-4.1004-0.16593c-3.6746-0.14871-4.5084-0.30874-8.0299-1.5413-2.1612-0.75644-5.2388-1.7706-6.839-2.2536-3.4271-1.0345-8.9534-3.4053-12.857-5.5156-2.1118-1.1416-2.7511-1.3643-2.6529-0.92419 0.0712 0.31893 0.75837 3.8089 1.5272 7.7555 1.5291 7.8497 2.039 14.783 1.4384 19.562l-0.31131 2.4773h1.649c0.90694 0 3.224-0.24755 5.1491-0.55014 6.9633-1.0945 12.15-0.73205 18.292 1.2782 2.9544 0.96696 3.3011 1.5649 2.9991 5.1728-0.38123 4.5548-1.4598 11.811-2.5836 17.381-0.57695 2.8598-0.91717 5.3252-0.75697 5.4854 0.5459 0.54589 3.9949 1.674 9.6394 3.1528 4.9208 1.2892 9.6732 2.9858 19.818 7.0748 1.4095 0.56811 5.4842 2.156 9.055 3.5287 5.0161 1.9283 10.597 4.3548 11.334 4.9273 0.0318 0.0247-0.33092-1.2236-0.80598-2.7741zm-62.474-13.188c1.7502-1.8723 3.1115-2.786 4.1506-2.786 0.88118 0 1.8378 1.0218 1.8378 1.963 0 0.73139 0.16594 0.62204 1.3726-0.90442 1.0688-1.3521 1.5207-2.3609 2.0419-4.5582 0.92594-3.9033 2.6356-13.94 2.8987-17.018 0.11972-1.4009 0.27894-2.8547 0.35369-3.2306 0.12127-0.60948-0.20426-0.75284-3.0092-1.3256-4.4671-0.91209-6.0078-1.0899-7.758-0.89547-1.3276 0.14751-1.5525 0.28757-1.6464 1.0251-0.22651 1.7785-1.5702 5.7883-3.3205 9.9092-0.99781 2.3492-1.923 4.7074-2.0559 5.2405l-0.24172 0.96932 1.3799-0.70399c0.75894-0.38719 1.9944-0.80223 2.7454-0.92235 1.1328-0.18114 1.4256-0.10615 1.7178 0.43977 0.45144 0.84352-0.61324 5.1867-2.9963 12.223-0.95301 2.8138-1.7327 5.1864-1.7327 5.2724s0.57483-0.52484 1.2774-1.3574c0.70257-0.83253 2.0459-2.3358 2.9852-3.3406zm71.696-4.791c1.4091-2.3631 2.2213-2.7608 3.8671-1.8934 1.1212 0.59088 3.6249 3.2249 5.4466 5.7302l0.70266 0.96627-0.42472-4.0471c-0.2336-2.2259-0.61653-6.0074-0.85096-8.4032l-0.42625-4.3561-2.5853-0.98654c-1.6005-0.61074-4.1472-1.1962-6.6856-1.5369-2.2552-0.30269-5.3305-0.93225-6.8339-1.399-2.9939-0.9295-11.397-2.7343-11.633-2.4984-0.0811 0.0811 0.39497 2.0314 1.0579 4.3342 1.1391 3.9566 2.0812 6.3364 5.1163 12.923l1.2938 2.8079 1.1548-1.014c2.7934-2.4527 5.2533-0.4483 7.7716 6.3325 0.19228 0.5177 0.45767-0.0208 1.0947-2.221 0.46247-1.5974 1.333-3.7298 1.9346-4.7386zm26.622-19.408c2.2136-2.3141 4.0514-4.7739 4.9027-6.5619 1.2659-2.6588 1.7581-5.994 1.186-8.0372-0.24254-0.86629-0.54537-1.5751-0.67297-1.5751-0.6427 0-1.482 1.1624-3.065 4.2452-1.8834 3.6677-2.5906 4.6389-3.3777 4.6389-0.73421 0-0.34823-3.4431 0.63205-5.638 1.978-4.429 3.8803-6.2938 6.0058-5.8874l0.90479 0.17295-0.23019-3.4642c-0.29049-4.3716-1.2607-8.7276-2.255-10.124l-0.76758-1.078-0.9352 0.89598c-1.127 1.0798-1.4686 2.1664-2.3885 7.5979-0.75733 4.4718-2.18 9.2565-3.5646 11.989-0.77801 1.5353-2.3498 3.2321-3.2819 3.5428-0.42414 0.14138-0.0598 2.1788 1.2116 6.7766 0.44174 1.5974 0.97007 3.5541 1.174 4.3482l0.37086 1.4438 1.6122-1.1586c0.8867-0.63721 2.0291-1.5945 2.5387-2.1272zm-115.53-10.873 1.5753-0.20329 0.20701-2.2927c0.22287-2.4686-0.12863-7.008-0.9369-12.097-0.27773-1.7489-0.67444-4.4867-0.88158-6.0842-0.5976-4.6087-0.69858-5.1255-1.0015-5.1255-0.40726 0-2.5045-5.143-3.4138-8.3716-1.7566-6.2371-3.3664-9.6874-6.0657-13.001l-1.6236-1.9931-0.58538 1.3466c-0.32196 0.7406-0.84645 2.6384-1.1655 4.2174-0.49934 2.471-0.5237 3.3037-0.17496 5.9797 0.22286 1.7099 0.70802 4.048 1.0782 5.1957 0.60026 1.8613 0.87771 2.2278 2.5676 3.3917 2.5712 1.7708 6.5313 6.0971 7.5191 8.2144 1.0409 2.231 1.6402 5.2667 1.1379 5.7633-0.25889 0.25592-0.47315 0.173-0.73003-0.28253-0.19996-0.35462-0.86021-1.2003-1.4672-1.8793-0.60698-0.67901-1.5293-1.9265-2.0496-2.7722s-2.2331-2.8062-3.8063-4.3566c-2.2567-2.2241-3.0692-2.819-3.8504-2.819-1.2624 0-1.4049 0.40462-1.4049 3.9892 0 4.9672 1.0618 9.1817 3.6436 14.462 1.9008 3.8873 2.5936 4.9438 4.4088 6.7237 2.0881 2.0474 3.0684 2.5191 4.7613 2.2908 0.37586-0.0508 1.3923-0.18363 2.2587-0.29542zm92.391-3.7873c3.9466-0.68794 7.2912-1.3564 7.4324-1.4854 0.48824-0.44601-1.1273-4.3073-2.654-6.3432-1.6618-2.2161-1.8053-2.7265-1.0129-3.6022 0.47261-0.52223 0.34934-0.76468-1.3668-2.688-1.1314-1.2679-1.8863-2.4295-1.8863-2.9023 0-1.6103 2.0729-2.5284 6.4186-2.8428 1.5569-0.11264 2.908-0.32987 3.0025-0.48273 0.0944-0.15286-0.0653-1.644-0.35493-3.3136-0.88144-5.0802-2.8699-10.488-3.987-10.842-0.36038-0.11438-0.89784-0.57824-1.1944-1.0308-0.50601-0.77229-0.48358-0.9176 0.36521-2.366 0.49739-0.84872 1.0132-1.5491 1.1462-1.5565 0.13303-0.0073 1.1423-0.82296 2.2428-1.8125l2.0009-1.7992-0.71805-3.6112c-1.7034-8.5668-5.3205-17.835-9.4054-24.101-2.5673-3.9376-3.1785-4.5983-5.1946-5.6153-2.7861-1.4053-5.246-3.097-7.5062-5.162-1.1823-1.0802-2.0197-1.6258-2.1047-1.3714-0.49923 1.4941-1.2636 1.8429-4.7053 2.1471-4.0719 0.3598-6.1395 1.0341-11.145 3.6349-3.9124 2.0327-4.142 2.236-6.0869 5.3858-0.64752 1.0487-1.3779 1.9067-1.623 1.9067-0.55444 0-0.55203-0.08647 0.0667-2.3919 0.33618-1.2525 0.50332-3.5319 0.50109-6.8339-4e-3 -5.5568-0.70615-9.6341-2.2295-12.942-0.87806-1.9064-0.88896-1.9152-1.3206-1.068-0.47039 0.92331-1.6226 4.4003-2.2414 6.7639-0.2638 1.0076-0.62896 1.5607-1.1649 1.7645-0.8041 0.30572-3.7737-0.11084-8.1734-1.1465-1.2802-0.30136-2.4248-0.54793-2.5435-0.54793-0.11869 0 0.87059 0.7654 2.1984 1.7009 3.3153 2.3358 5.8909 5.223 7.3515 8.2412 1.6452 3.3996 1.8417 4.5727 0.87875 5.2472-0.66061 0.46271-0.81885 0.46343-1.4413 0.0066-0.38458-0.28228-1.0836-0.69114-1.5535-0.90858-6.0603-2.8047-6.7843-3.0674-8.9696-3.2545l-2.3064-0.19748v3.7665c0 2.7309 0.24012 4.9057 0.87337 7.9103 0.48036 2.2791 0.77881 4.2968 0.66323 4.4838-0.57247 0.92629-1.8691 0.2714-3.8078-1.9232l-1.9993-2.2632-0.2344 0.98185c-0.12888 0.54002-0.49362 2.5964-0.81045 4.5697-0.31682 1.9733-0.94908 4.741-1.405 6.1506-1.2423 3.8405-2.9244 10.288-2.7338 10.478 0.0921 0.09211 0.96721-0.38266 1.9447-1.055 2.2801-1.5684 4.4371-1.7154 5.3234-0.3628 0.49335 0.75293 0.50816 1.0606 0.11933 2.4773-0.74811 2.726-2.6492 6.8841-5.1324 11.226-1.3026 2.2776-2.3684 4.2545-2.3684 4.3932s0.26909 0.14367 0.59797 0.01098c1.4359-0.57906 4.589-1.2483 5.0493-1.0716 0.2768 0.10622 0.50328 0.50706 0.50328 0.89075 0 0.76897-1.8892 3.6574-3.5212 5.3838-0.57475 0.60797-0.97642 1.174-0.89261 1.2578 0.0838 0.0838 1.2265 0.55742 2.5394 1.0525 1.6715 0.63029 3.3429 0.95903 5.5758 1.0967l3.1888 0.19662-0.27958-1.6711c-0.57466-3.4347-0.22049-10.299 0.8884-17.218 0.5873-3.6647 1.2878-7.355 1.5566-8.2007 0.26883-0.8457 0.78822-2.9303 1.1542-4.6324 1.1264-5.2391 2.8198-8.6937 4.2614-8.6937 0.3583 0 1.2358 0.52794 1.95 1.1732 1.8005 1.6267 3.197 1.9756 8.6232 2.1545l4.7134 0.15544-0.69723-1.1436c-0.84424-1.3848-0.899-2.9199-0.13427-3.7649 1.0737-1.1865 2.5173-0.51046 1.7074 0.79959-0.47294 0.76504 0.0918 1.4077 2.1113 2.4025 1.3616 0.67074 2.0961 0.78117 5.0124 0.75354 5.5871-0.05295 10.582-2.0394 17.92-7.127 3.0652-2.1251 4.1195-2.6193 4.1195-1.9309 0 0.16851-1.1376 1.4094-2.5279 2.7576-1.4503 1.4063-2.9666 3.2785-3.5569 4.392-1.1912 2.2466-3.9147 10.789-4.8677 15.267-0.82728 3.8876-0.89557 10.205-0.13791 12.756 0.54631 1.8396 2.4499 4.399 2.9147 3.9188 0.14576-0.1506 0.53832-1.3502 0.87237-2.6657s0.74893-2.5841 0.92196-2.819c0.44157-0.5995 1.9202-0.53299 2.1621 0.09725 0.48037 1.2518-1.6269 7.2835-5.4872 15.706-1.9228 4.1952-1.9752 4.7065-0.45887 4.4726 3.8534-0.5944 4.3071-0.59078 4.6394 0.03719 0.39334 0.74331 0.16086 1.3963-2.2511 6.3229-0.9847 2.0113-1.7904 3.764-1.7904 3.8947 0 0.43574 5.2176-0.16038 12.472-1.4249zm-14.522 0.0911c0-0.62072 0.61505-2.4004 1.3668-3.9549s1.3668-2.8545 1.3668-2.8888c0-0.03435-0.67554-9e-3 -1.5012 0.05696-3.9028 0.3104-4.0622-1.5643-0.75766-8.9132 1.0228-2.2746 0.91573-2.5299-0.27202-0.64839-1.4814 2.3467-8.7626 9.06-10.539 9.717-0.32889 0.12165-0.59797 0.38485-0.59797 0.58494 0 0.88728 1.7767 3.7401 3.0401 4.8815 1.437 1.2982 1.8118 1.4536 4.6527 1.9283 3.1328 0.52354 3.2415 0.49794 3.2415-0.76349zm-19.314-7.4104c2.4273-0.39746 7.2438-2.7681 10.43-5.1335 3.5341-2.6236 9.2258-9.2756 9.2258-10.782 0-0.21828-0.28473-0.76358-0.63273-1.2118-1.9449-2.5049-2.8553-8.1983-2.1298-13.319 0.45803-3.2331 2.3987-10.962 3.4411-13.705 0.84313-2.2183 0.85919-2.5654 0.0901-1.9481-1.1336 0.91009-3.6807 1.9974-6.4019 2.7327-3.4107 0.9217-7.6968 0.79388-10.178-0.30352l-1.5991-0.70736-1.9731 0.71483c-4.0423 1.4644-9.757 1.1434-12.925-0.72603l-1.1093-0.65452-0.53699 1.4205c-0.79014 2.0901-1.4056 4.9947-2.8349 13.38-1.1704 6.8663-1.2817 8.0796-1.2844 14.01-3e-3 6.2132 0.0356 6.5898 0.89646 8.762 0.49472 1.2484 1.2995 2.8743 1.7885 3.6132 1.4794 2.2354 2.4529 2.7759 6.8574 3.8066 1.8531 0.43366 6.3835 0.4603 8.8758 0.05218zm-9.1467-15.727c-1.5667-1.2324-1.9534-3.4258-2.0526-11.644-0.0737-6.1043 0.0964-6.8024 1.6575-6.8024 1.5167 0 1.8601 0.79871 1.8834 4.381 0.0116 1.8189 0.16196 4.6141 0.33365 6.2116 0.75686 7.0423 0.77561 7.4908 0.33526 8.0214-0.57899 0.69764-1.1095 0.65638-2.1572-0.16775zm15.853-2.8616c-0.99963-1.0641-1.3113-3.3709-1.3785-10.204-0.0523-5.3168-0.0425-5.3929 0.80051-6.236 1.0197-1.0197 1.2574-1.0435 2.2656-0.2272 0.66719 0.54025 0.81086 1.0915 1.0464 4.0149 0.39329 4.8823 0.36483 10.878-0.0569 11.987-0.63653 1.6742-1.5221 1.894-2.677 0.6646z"/>
 <g stroke-width=".47976">
  <path d="m124.09 154.3c-3.1484-1.3924-20.544-8.2805-27.269-10.798-2.0214-0.75666-6.572-2.1996-10.112-3.2065-7.7319-2.1991-8.7197-2.582-8.7197-3.3798 0-0.32739 0.3538-2.465 0.78623-4.7502 1.2345-6.5239 2.306-13.948 2.5217-17.473 0.19323-3.1579 0.18044-3.2457-0.58347-4.0096-0.83805-0.83805-4.3698-2.0827-7.7053-2.7155-2.8427-0.5393-9.4656-0.47789-13.579 0.12591-1.9268 0.28285-4.044 0.51425-4.7051 0.51425l-1.4905 0.81946 0.452-5.709c0.45793-5.7839-0.32456-10.901-1.9298-18.995-0.59047-2.9772-1.9461-6.3729-1.8528-6.4662s2.0559 1.2263 3.2015 1.8529c3.7367 2.0435 9.6975 4.4626 16.658 6.7601 6.7275 2.2207 6.8895 2.2569 10.812 2.418l4.2435-0.34169 1.3648 2.1108c1.6474 2.5478 3.5047 4.9351 5.714 5.7628 3.9088 1.4643 5.3185 1.6998 9.9969 1.6696 4.2148-0.0271 6.5646-0.84025 9.9232-2.648 0.50224-0.27034 0.48854 1.2909 1.4605 3.2575 2.717 5.4976 6.4698 7.0351 17.209 7.0503 5.1938 8e-3 13.902-1.546 20.913-3.6347 0.42199-0.12566 0.0976 0.62218 0.26606 3.3756 0.14304 2.3377 0.63179 4.9647 1.7726 9.5273 0.86629 3.4648 1.7466 6.8279 1.6741 6.9005-0.17346 0.17344-9.7396-2.9472-11.914-3.7875-0.93066-0.35969-4.2136-1.07-7.2955-1.5784-3.0818-0.50839-6.6789-1.198-7.9935-1.5324-3.9041-0.9932-9.4563-1.8447-12.028-1.8447-4.0502 0-4.179 0.62736-1.8764 9.1396 1.4554 5.3801 2.9369 8.0015 7.7507 17.965 3.0381 6.288 6.4955 14.713 6.2257 15.328-0.0468 0.10641-2.183-0.95214-3.8905-1.7073z" fill="#f6630d" stroke="#f6630d"/>
  <g fill="#ffd700" stroke="#ffd700">
   <path d="m128.42 100.46c0.56951-1.2379 1.4695-3.1588 2-4.2686 1.6662-3.4858 1.2212-4.4638-1.829-4.0194-2.5651 0.3737-2.794 0.35223-2.794-0.26206 0-0.30588 1.0628-2.9951 2.3618-5.9761 4.0851-9.3745 5.2549-13.666 3.8471-14.112-1.3533-0.42953-1.8104 0.07697-2.6778 2.9673-0.4582 1.5268-0.94447 2.7759-1.0806 2.7759-0.36789 0-1.9894-2.4857-2.3914-3.666-0.5712-1.6769-0.7683-6.2138-0.40718-9.3727 0.38058-3.3293 1.3873-7.4222 3.1341-12.742 1.7881-5.4452 2.479-6.6805 5.6245-10.056 1.8666-2.0029 2.7221-3.1373 2.519-3.3404-0.38757-0.38757-0.83342-0.1535-5.2618 2.7623-4.3603 2.871-9.1784 5.2041-12.094 5.8565-1.5407 0.34469-3.2943 0.46743-5.6401 0.39475-3.2102-0.09947-3.4807-0.1593-4.7469-1.05-1.2242-0.86114-1.334-1.0461-1.2435-2.0955 0.0895-1.0381 0.0254-1.151-0.65263-1.151-1.6294 0-2.3377 2.366-1.3057 4.3617l0.47364 0.91592-3.3453-0.0017c-1.8399-9.78e-4 -4.1626-0.13566-5.1616-0.29926-1.6346-0.2677-2.4329-0.64432-5.5163-2.6025-0.8564-0.54389-0.94944-0.54658-1.7084-0.04928-1.2285 0.80494-2.3954 3.7875-3.9489 10.093-1.4449 5.8649-2.4209 11.198-3.0108 16.454-0.38818 3.458-0.48626 10.89-0.16285 12.34l0.22498 1.0089-1.965-0.0054c-2.3683-0.0065-5.4516-0.63325-7.5259-1.5298l-1.5252-0.6592 0.94247-0.9983c2.1594-2.2874 3.8365-5.333 3.3606-6.103-0.28218-0.45658-1.8738-0.40328-3.877 0.12983-0.93116 0.2478-1.7446 0.39894-1.8077 0.33587s0.5062-1.2105 1.265-2.5497c3.4999-6.1769 6.1162-12.206 6.1162-14.095 0-1.2834-0.97774-2.1546-2.4179-2.1546-1.1535 0-2.4326 0.51693-4.2261 1.708l-0.90075 0.59818 0.23063-1.2307c0.12685-0.67688 0.9102-3.6056 1.7408-6.5083 0.83058-2.9027 1.8034-6.954 2.1618-9.0029 0.94444-5.3992 0.73944-5.1474 2.543-3.1238 1.682 1.8872 3.0294 2.7625 3.7981 2.4675 0.63406-0.24331 0.61324-0.87066-0.15858-4.7771-0.35414-1.7924-0.72204-5.1552-0.81756-7.4727l-0.17365-4.2137 2.137 0.23643c2.2374 0.24754 4.5378 1.0771 8.5998 3.1011 2.7719 1.3812 3.4615 1.4771 3.9573 0.55055 0.44784-0.8368 0.25223-1.7873-0.88668-4.3083-1.338-2.9617-3.5929-5.7498-6.4951-8.0308-1.4103-1.1085-2.5312-2.0445-2.4909-2.0801 0.0403-0.03556 1.61 0.26504 3.4883 0.66798 3.9736 0.85249 6.1237 0.94656 6.7739 0.29638 0.24975-0.24975 0.7542-1.4721 1.121-2.7164 0.36681-1.2443 0.96453-3.0835 1.3283-4.0871 0.59038-1.629 0.70449-1.7658 1.0638-1.2745 0.6105 0.83493 1.9153 5.0187 2.2736 7.2903 0.48073 3.0478 0.3974 11.293-0.13648 13.504-0.57438 2.3788-0.57682 2.3283 0.11261 2.3283 0.37748 0 1.0499-0.71443 1.8989-2.0176 1.8332-2.8138 2.9654-3.698 7.5958-5.9329 4.0507-1.955 6.2459-2.5786 10.851-3.0824 1.4442-0.15799 2.0253-0.38847 2.7129-1.0761l0.87503-0.87503 2.3008 1.9009c1.2654 1.0455 3.7699 2.9002 5.6691 3.9419 2.9812 1.6352 3.4936 2.1629 5.1444 4.5135 4.5115 6.2805 8.4449 15.878 10.61 25.889l0.73525 3.3996-2.316 1.9589c-2.1318 1.8031-3.8204 3.9566-3.8204 4.8724 0 0.2065 1.0688 0.74693 1.8226 1.5115 1.0389 1.0538 1.1486 2.2807 1.8703 4.2752 0.90266 2.4946 2.5894 8.2237 2.5894 9.5807 0 0.73844-0.74493 0.69426-3.6435 0.96304-2.8573 0.26495-4.242 0.64152-5.237 1.4242-1.2668 0.9965-1.0661 1.9879 0.90175 4.4532 1.1762 1.4735 1.9537 2.2217 1.7344 2.4409-0.60703 0.60702-0.65499 1.944 0.45257 3.5886 1.2972 1.9263 3.2953 5.4958 3.2957 6.2275 2.1e-4 0.40647-1.226 0.4343-4.6399 1.0878-5.4464 1.0427-12.274 2.0436-13.952 2.0455l-1.3017 9.8e-4 1.0355-2.2507z"/>
   <path d="m132.07 139.6c-2.1374-4.416-4.1151-5.54-6.653-3.7812-0.65257 0.45225-1.2381 0.76657-1.3012 0.69851-0.063-0.0681-1.16-2.4986-2.4377-5.4013-2.3319-5.2978-3.0983-7.3906-4.2347-11.564-0.60741-2.2308-0.60747-2.2507-7e-3 -2.2507 0.85053 0 6.0102 1.1238 10.064 2.1921 1.8782 0.49493 5.1612 1.191 7.2955 1.547 2.1343 0.35591 5.1428 1.0649 6.6854 1.5756l2.8049 0.92845 0.7957 7.8217c0.43763 4.3019 0.76627 7.8607 0.7303 7.9084-0.0359 0.0476-0.88785-0.91931-1.8931-2.1488-2.2175-2.7123-3.8953-3.9916-5.2351-3.9916-1.6258 0-2.891 1.8715-4.5003 6.6566l-0.82918 2.4656z"/>
   <path d="m121.28 101.97c-3.0366-0.59997-4.7562-2.0423-6.5043-5.4553-0.52453-1.0241-0.52481-1.0903-7e-3 -1.397 1.5589-0.9216 4.387-3.3132 7.2712-6.1491 1.7765-1.7467 4.9773-5.5748 4.8427-5.2333-1.0446 2.651-3.8741 8.4004-3.8775 9.0608-8e-3 1.3884 0.66482 1.9268 2.606 2.0878 1.1549 0.09583 2.8055-0.45787 2.702-0.23095-1.0942 2.3982-3.4401 6.4995-3.4442 7.0502-7e-3 0.81548-0.59234 0.85904-3.5898 0.2668z"/>
   <path d="m60.913 143.58c0.06484-0.13099 0.76473-2.6398 1.7005-5.5415 1.8632-5.7778 2.7672-9.6168 2.4787-10.526-0.25372-0.79941-2.3349-0.77577-4.1486 0.0472-0.75109 0.34076-1.4208 0.56436-1.4883 0.49688-0.0675-0.0675 0.86033-2.5837 2.0618-5.5915 1.2015-3.0078 2.5042-6.6222 2.8949-8.032l0.71036-2.5632 2.0083-0.0974c2.1111-0.10229 7.2373 0.67094 8.862 1.3367l0.95523 0.39146-0.39188 3.3756c-0.72623 6.2556-2.5578 16.409-3.3808 18.741-0.24707 0.70025-0.89222 1.8901-1.4337 2.644l-0.98447 1.3708-0.49859-0.99791c-0.57169-1.1442-1.7039-1.4364-3.1863-0.8224-0.50246 0.20812-2.0936 1.6508-3.5359 3.2059s-3.4358 4.2034-3.371 4.0724z"/>
  </g>
  <path d="m158.55 118.47c-0.52819-1.5364-2.6411-10.201-2.6411-10.83 0-0.51816 0.26246-0.92479 0.77345-1.1983 2.2773-1.2188 4.4876-6.7001 6.2-15.376 1.1439-5.795 1.2576-6.134 2.4226-7.2235l0.76057-0.71124 0.46206 0.71124c1.1006 1.6941 2.0194 5.7465 2.3107 10.191l0.20269 3.0929h-1.3417c-1.1739 0-1.5 0.16541-2.6078 1.3227-2.7372 2.8595-5.0082 9.7599-3.4134 10.372 0.72249 0.27726 1.4205-0.59549 3.394-4.2439 1.7618-3.2569 2.5088-4.3462 2.9804-4.3462 0.48818 0 0.96222 2.6585 0.78279 4.3901-0.43636 4.2111-3.3323 8.8683-7.9309 12.754-1.8548 1.5673-2.1453 1.7024-2.3543 1.0944z" fill="#fee599" stroke="#fee599"/>
  <path d="m42.676 104.86c-2.0192-1.0058-4.1667-3.6024-6.0677-7.3367-3.1216-6.1319-4.2574-10.287-4.2574-15.574 0-4.656 0.70276-4.8727 4.3926-1.3542 1.3877 1.3233 3.3643 3.5236 4.3925 4.8895 3.0476 4.0488 3.7126 4.8119 4.1935 4.8119 0.76055 0 0.27872-3.3893-0.80535-5.6652-1.1967-2.5123-4.1561-5.9426-7.0179-8.1345-2.4291-1.8605-2.7103-2.276-3.4183-5.0505-1.0404-4.077-1.184-6.6478-0.54544-9.7637 0.32647-1.593 0.82277-3.4425 1.1029-4.1101l0.50931-1.2138 1.5454 1.9899c2.3166 2.983 3.563 5.5992 5.5679 11.687 1.8601 5.6483 3.2289 9.0777 3.7524 9.4012 0.57314 0.35422 2.5285 15.108 2.6998 20.371l0.16306 5.0102-1.6692 0.2062c-0.91806 0.11339-2.0185 0.2704-2.4453 0.34887-0.43416 0.0798-1.3562-0.14628-2.0928-0.51318z" fill="#fee599" stroke="#fee599"/>
 </g>
 <path d="m98.166 94.021c-5.3474-0.71557-7.0242-1.8566-9.1259-6.2095l-1.274-2.6388-0.0999-6.6118c-0.0746-4.9358 0.0288-7.4933 0.40758-10.089 0.86957-5.9597 2.5913-14.87 3.2937-17.045l0.67191-2.0808 1.194 0.60914c3.2832 1.675 9.018 1.9529 12.826 0.62157l1.8394-0.64314 1.7307 0.68953c1.4549 0.57965 2.3244 0.68858 5.4561 0.68356 3.2521-0.0052 4.0408-0.11489 6.2089-0.86342 1.366-0.4716 3.0773-1.1876 3.8029-1.5911 1.4792-0.8225 1.512-0.77851 0.83834 1.1239-0.85846 2.4241-2.043 6.8653-2.8048 10.517-1.3356 6.4006-0.80229 13.07 1.2989 16.246 0.5209 0.78713 0.73564 1.4457 0.62071 1.9036-0.50604 2.0162-6.9451 8.8051-10.682 11.263-5.6822 3.7365-10.292 4.9078-16.202 4.1169zm0.6291-15.377c0.29468-0.35507 0.34143-1.2792 0.18454-3.6477-0.70008-10.569-1.0199-14.394-1.2319-14.737-0.13158-0.2129-0.79325-0.38709-1.4704-0.38709-1.0549 0-1.2791 0.12222-1.5662 0.85372-0.43615 1.1115-0.1443 13.741 0.35634 15.42 0.67297 2.2567 2.7646 3.6584 3.7276 2.4981zm16.306-3.395c0.51614-1.2353 0.61109-9.5568 0.1541-13.506-0.22472-1.9418-0.40243-2.4352-1.0902-3.0268-1.026-0.88255-1.1721-0.87984-2.2444 0.04162-0.85992 0.73894-0.87235 0.80019-0.97306 4.7984-0.17338 6.883 0.59959 12.046 1.8806 12.562 1.1345 0.45647 1.8305 0.19044 2.2731-0.86881z" fill="#fee599" stroke="#fee599" stroke-width=".4"/>
 <path d="m114.78 186.65c-0.61693-1.4656-1.6871-7.7914-2.935-17.349-1.5808-12.107-2.0709-13.815-3.9644-13.815-1.8919 0-2.2196 0.68363-3.0509 6.3641-1.0018 6.8452-3.918 19.092-4.5461 19.092-0.14998 0-0.59244-0.20952-0.98327-0.46559-1.0835-0.70992-4.959-1.9541-7.7706-2.4945-1.6963-0.32607-4.262-0.4803-7.8638-0.47269l-5.3461 0.0116 1.7237-2.6444c0.94803-1.4544 2.0634-3.4804 2.4786-4.5023 1.8808-4.6286 3.4021-13.174 3.7422-21.02 0.11287-2.6039-0.29809-5.0046-0.19655-5.0045 1.1286 2.6e-4 15.381 5.6766 22.347 8.8781 1.2806 0.58859 4.843 2.1127 7.9164 3.3869s6.1204 2.2568 6.3924 2.5471c0.27201 0.29029 0.57617 2.0591 1.0546 3.5673 1.008 3.1776 4.0457 9.3367 6.1433 12.456 1.5218 2.2628 2.8129 3.0521 1.2172 3.0753-1.2556 0.0184-6.1515 0.9884-8.4119 2.3312-2.6382 1.5673-5.0631 3.7353-6.4023 5.7239l-1.0368 1.5396z" fill="#3cf" stroke="#3cf" stroke-width=".47976"/>
 <path transform="scale(.26458)" d="m510.6 721.82c-3.7808-0.47664-4.7322-1.5703-6.7768-7.7899-3.0242-9.1995-13.219-16.973-16.231-12.376-1.0416 1.5897-0.18818 3.5682 3.2401 7.5117 3.3439 3.8464 5.0175 6.9836 5.3389 10.008l0.22453 2.1128-6.8668 0.3065c-3.7767 0.16858-15.496 0.23992-26.044 0.15855-16.973-0.13096-19.262-0.23285-19.915-0.88646-0.68122-0.68164-0.6773-0.85653 0.0508-2.2714 1.5248-2.963 7.1961-10.202 10.834-13.83 4.7982-4.7843 7.2252-8.6201 19.739-14.883 2.998-1.5004 6.4803-3.0987 11.834-3.9373 5.1728-0.59472 9.3268 4e-3 13.989 6e-3 16.395 8e-3 30.504 0.62892 36.249 1.5969 10.122 1.7056 16.783 5.3349 24.985 13.613 5.3247 5.3742 7.1167 9.4434 8.1729 18.559l0.30796 2.6579-7.4203-0.30283c-13.429-0.54805-19.592-1.3504-20.972-2.7303-0.3553-0.3553-0.90315-2.0364-1.2174-3.7357-1.2264-6.6306-3.9041-12.124-6.8649-14.083-2.1162-1.4004-5.6392-1.7054-6.9683-0.60332-1.3938 1.1558-0.69893 5.0853 1.8219 10.302 1.1877 2.4581 2.2575 5.3386 2.3772 6.4011 0.20778 1.8435 0.14755 1.9609-1.3176 2.568-2.441 1.0115-14.838 2.0976-18.57 1.6269z" fill="#fee599" stroke="#fee599" stroke-width="1.4438"/>
 <path transform="scale(.26458)" d="m254.5 724.77c0-0.6329-0.37283-1.5627-0.82852-2.0662-0.80758-0.89237-0.78045-1.0124 1.0743-4.7523 4.3804-8.8324 11.599-19.053 16.968-24.023 4.0463-3.7463 9.6848-6.619 16.061-8.1832 7.6476-1.8759 26.104-4.3427 32.491-4.3427 6.1517 0 23.33 2.499 31.477 4.5793 8.341 2.1296 18.941 9.4988 21.285 14.797 0.81583 1.8443 0.94683 3.0799 0.97619 9.2071 0.0335 6.9843-0.31946 11.567-0.97214 12.623-0.5087 0.82311-12.81 1.4803-33.811 1.8064-15.023 0.2333-18.512 0.17631-18.512-0.30244 0-0.97829 2.6682-5.0173 5.7984-8.7774 3.008-3.6132 5.618-5.7683 6.9862-5.7683 1.0665 0 3.0245-2.4635 3.354-4.2201 0.41013-2.1862-0.43055-3.8933-2.3025-4.6754-2.8979-1.2108-6.5022 0.60797-11.673 5.8904-3.782 3.8637-6.3056 7.5306-8.6426 12.558-1.0999 2.3662-2.2896 4.5316-2.6437 4.812-0.35411 0.28038-2.7903 0.63205-5.4137 0.78148-2.6234 0.14944-8.8707 0.51407-13.883 0.81029-10.129 0.59865-11.556 0.46127-11.556-1.1127 0-3.0378 6.3946-9.9442 13.79-14.893 5.7854-3.8718 8.0153-5.6886 8.0153-6.5305 0-0.98378-3.4231-3.8685-4.5905-3.8685-0.62985 0-2.9451 0.91843-5.145 2.0409-9.9849 5.0949-18.214 13.663-20.783 21.641l-1.005 3.1203h-16.516z" fill="#fee599" stroke="#fee599" stroke-width="1.4438"/>
</svg>
